<?xml version="1.0" standalone="no"?>
<!DOCTYPE svg PUBLIC "-//W3C//DTD SVG 20010904//EN"
 "http://www.w3.org/TR/2001/REC-SVG-20010904/DTD/svg10.dtd">
<svg version="1.0" xmlns="http://www.w3.org/2000/svg"
 width="512.000000pt" height="512.000000pt" viewBox="0 0 512.000000 512.000000"
 preserveAspectRatio="xMidYMid meet">

<g transform="translate(0.000000,512.000000) scale(0.100000,-0.100000)"
fill="#000000" stroke="none">
<path d="M3578 4886 c-103 -28 -168 -116 -168 -226 0 -88 33 -141 110 -174 19
-8 28 -16 20 -16 -32 -3 26 -19 68 -19 99 -2 161 63 171 177 l6 67 19 -28 c32
-47 33 -125 3 -190 -67 -147 -235 -227 -442 -213 -85 6 -152 19 -420 80 -198
46 -288 58 -462 63 -187 6 -244 0 -378 -44 -297 -96 -551 -304 -724 -592 -166
-275 -219 -657 -131 -941 59 -193 156 -357 364 -614 150 -185 207 -270 257
-386 79 -178 118 -366 122 -574 l2 -134 53 -26 52 -26 0 510 0 510 48 -2 47
-1 -42 -4 -43 -4 -2 -515 c-2 -283 0 -514 4 -514 4 0 9 228 10 506 l3 506 120
3 c132 2 205 12 205 27 0 6 -8 7 -17 3 -10 -3 -49 -8 -88 -10 l-70 -4 60 8
c33 4 75 11 93 15 l32 8 0 -332 c0 -423 -20 -579 -103 -785 -60 -149 -114
-232 -222 -341 -86 -87 -113 -107 -195 -147 -153 -75 -295 -93 -414 -51 -51
18 -109 62 -103 78 3 7 1 19 -5 27 -7 11 -8 9 -3 -6 5 -16 3 -17 -6 -8 -6 6
-14 34 -17 61 -7 77 31 133 90 131 19 -1 17 -3 -9 -10 -48 -14 -73 -52 -72
-108 l2 -46 6 47 c8 56 31 84 83 100 21 6 37 16 34 22 -14 36 -14 46 1 18 14
-27 15 -35 4 -41 -9 -6 -10 -11 -2 -15 6 -4 14 0 17 9 8 20 -22 88 -35 81 -5
-3 -16 5 -25 18 -8 13 -40 36 -71 51 -49 24 -64 27 -125 23 -161 -12 -262
-143 -247 -320 13 -153 103 -265 253 -317 32 -11 50 -21 39 -22 -14 0 -12 -3
10 -10 46 -15 222 -12 302 5 181 39 358 138 500 282 46 46 83 89 83 95 0 5
-39 -30 -88 -79 -97 -99 -223 -187 -333 -232 -40 -17 -77 -30 -83 -30 -6 1 14
11 44 24 159 66 260 136 377 260 l79 83 28 -21 c23 -17 42 -21 109 -21 101 1
161 28 231 106 54 60 80 106 101 182 14 46 15 47 10 12 -7 -59 -60 -159 -113
-213 -60 -61 -124 -92 -215 -102 l-72 -9 75 2 c56 2 88 9 125 27 96 46 178
155 210 275 11 46 12 61 3 66 -23 15 -1 19 25 6 15 -8 25 -16 22 -19 -3 -2 10
-3 28 -2 29 3 29 3 7 -5 -44 -14 60 -25 119 -12 101 22 163 69 202 156 24 52
26 173 3 201 -15 18 -15 18 -5 -3 16 -32 13 -123 -4 -174 -32 -92 -132 -170
-215 -168 -31 1 -30 2 13 9 92 16 162 74 193 162 18 52 18 145 -1 178 l-14 25
-1 -23 c0 -34 -43 -72 -81 -72 -17 0 -49 10 -70 22 -36 20 -44 30 -40 51 1 5
-3 6 -9 2 -11 -7 -33 38 -58 120 -13 41 -16 129 -19 469 l-4 418 77 76 c76 75
171 207 209 292 l20 44 5 -409 5 -410 30 -60 c22 -44 40 -66 68 -81 20 -11 35
-22 33 -25 -2 -2 30 -5 72 -7 95 -3 136 15 169 78 56 105 -6 220 -118 220 -86
0 -147 -69 -136 -154 l5 -41 -17 35 c-14 31 -16 114 -19 759 l-3 723 -42 54
-42 54 -6 -202 c-7 -227 -18 -285 -80 -444 -39 -99 -123 -239 -194 -319 l-35
-40 0 729 0 728 34 34 c19 19 41 34 50 34 55 0 -31 97 -128 145 -188 93 -451
85 -665 -21 -78 -40 -110 -63 -181 -133 -98 -99 -141 -166 -182 -289 -40 -116
-43 -255 -8 -347 32 -82 108 -158 180 -179 69 -21 164 -20 225 1 134 45 202
209 141 338 -26 56 -57 88 -99 104 -42 16 -47 14 -31 -16 28 -55 7 -120 -48
-149 -63 -32 -196 2 -192 50 1 8 -3 14 -8 13 -21 -4 -40 77 -36 154 8 141 85
262 206 321 55 27 79 33 142 35 l75 1 -75 -7 c-101 -10 -168 -41 -230 -107
-69 -73 -102 -148 -108 -244 -2 -41 1 -86 6 -100 7 -19 8 -9 5 40 -12 155 73
305 207 369 44 20 70 25 131 26 43 0 75 3 72 8 -14 23 55 -14 84 -45 12 -12
34 -50 50 -83 l28 -60 3 -322 3 -321 -30 -7 c-60 -13 -121 -88 -105 -129 5
-12 -1 -16 -23 -16 -57 0 -100 -54 -88 -112 l7 -29 20 26 c39 50 123 18 164
-65 40 -80 54 -182 54 -389 l0 -190 -37 -8 c-74 -16 -282 -7 -368 16 -90 23
-243 95 -294 138 l-34 29 44 -5 c37 -4 40 -5 19 -11 -49 -13 34 -22 97 -11
125 24 220 97 257 200 21 59 19 191 -3 226 -12 20 -12 20 -6 0 17 -47 17 -153
1 -207 -31 -109 -142 -195 -262 -203 l-59 -4 55 9 c160 26 257 124 268 269 4
60 -3 103 -24 155 -6 15 -4 17 6 11 9 -6 11 -4 6 4 -5 7 -10 10 -13 7 -3 -3
-17 9 -31 26 -34 41 -96 68 -154 68 -27 0 -48 -2 -48 -5 0 -3 9 -14 20 -25 24
-24 26 -58 4 -89 -35 -49 -129 -65 -216 -35 -54 18 -131 81 -124 100 3 7 0 16
-6 20 -7 5 -8 2 -4 -7 4 -8 0 -5 -8 6 -9 11 -14 25 -12 32 3 7 0 12 -6 10 -16
-3 -58 123 -62 190 -3 43 -2 48 3 18 4 -25 7 12 8 95 2 189 34 331 113 492
146 296 392 483 716 544 91 17 261 23 339 12 31 -4 41 -4 25 2 -45 15 5 10 58
-5 29 -9 50 -20 47 -25 -3 -6 0 -7 8 -4 17 6 133 -50 187 -90 81 -61 151 -141
188 -215 33 -66 37 -83 37 -150 0 -42 -3 -92 -7 -111 -7 -31 14 -13 199 175
255 260 411 431 457 499 50 76 76 149 86 241 l9 80 -4 -80 c-8 -186 -38 -227
-604 -815 -84 -88 -149 -160 -144 -160 9 0 529 538 604 625 107 125 159 243
159 360 0 61 -14 120 -32 140 -5 6 -4 -3 1 -18 6 -16 11 -34 10 -40 0 -7 -7 5
-15 27 -7 21 -11 42 -9 46 3 5 0 12 -6 16 -8 5 -9 3 -4 -7 5 -8 -10 7 -33 32
-68 76 -187 112 -284 85z m195 -234 c-9 -118 -79 -194 -178 -191 -38 1 -37 2
14 9 57 9 92 29 125 74 17 22 21 42 21 100 0 49 4 72 11 69 6 -2 9 -26 7 -61z
m-1225 -349 c-21 -2 -55 -2 -75 0 -21 2 -4 4 37 4 41 0 58 -2 38 -4z m-182
-14 c-353 -46 -625 -238 -785 -555 -67 -134 -102 -264 -120 -454 l-10 -95 5
105 c23 477 327 870 759 978 103 26 121 29 175 29 35 0 30 -1 -24 -8z m267 4
c-7 -2 -21 -2 -30 0 -10 3 -4 5 12 5 17 0 24 -2 18 -5z m16 -1533 c1 -251 4
-308 16 -324 19 -26 19 -100 0 -134 -12 -22 -16 -110 -23 -497 l-9 -470 -1
469 c-2 417 -4 471 -18 487 -27 30 -30 102 -5 144 21 36 21 44 23 648 2 553 2
582 9 297 3 -173 7 -452 8 -620z m-1272 758 c-3 -8 -6 -5 -6 6 -1 11 2 17 5
13 3 -3 4 -12 1 -19z m-10 -40 c-3 -8 -6 -5 -6 6 -1 11 2 17 5 13 3 -3 4 -12
1 -19z m-10 -50 c-3 -7 -5 -2 -5 12 0 14 2 19 5 13 2 -7 2 -19 0 -25z m-10
-55 c-3 -10 -5 -4 -5 12 0 17 2 24 5 18 2 -7 2 -21 0 -30z m-10 -180 c0 -128
4 -173 21 -236 40 -147 124 -267 222 -317 23 -12 74 -28 113 -36 175 -37 306
39 307 178 l1 43 16 -29 c39 -72 -12 -181 -104 -223 -49 -23 -64 -25 -152 -21
-89 3 -105 7 -174 41 -50 25 -90 53 -118 85 -90 102 -149 286 -149 472 0 79 9
200 14 200 1 0 2 -71 3 -157z m-28 -2440 c-23 -21 -48 -52 -56 -70 -47 -114
35 -260 176 -314 50 -19 70 -20 186 -16 72 3 141 8 155 11 24 6 24 6 3 -3 -41
-19 -196 -34 -271 -27 -170 16 -287 102 -311 231 -17 91 23 179 94 211 58 26
67 16 24 -23z m386 -503 c-11 -5 -29 -8 -40 -8 -16 0 -15 2 5 8 34 11 60 11
35 0z m-72 -17 c-7 -2 -21 -2 -30 0 -10 3 -4 5 12 5 17 0 24 -2 18 -5z m-100
-10 c-29 -2 -78 -2 -110 0 -32 2 -8 3 52 3 61 0 87 -1 58 -3z"/>
<path d="M2738 4253 c7 -3 16 -2 19 1 4 3 -2 6 -13 5 -11 0 -14 -3 -6 -6z"/>
<path d="M2919 3958 c4 -13 6 -30 3 -38 -3 -11 -1 -12 7 -4 8 8 9 18 2 37 -6
15 -13 27 -16 27 -2 0 -1 -10 4 -22z"/>
<path d="M2867 3919 c-48 -28 -47 -21 -45 -771 l3 -703 5 705 c5 654 6 708 23
733 9 15 24 27 32 27 7 0 17 5 20 10 8 13 -15 12 -38 -1z"/>
<path d="M2292 3443 c38 -85 15 -196 -56 -271 -58 -62 -99 -77 -213 -77 -56 0
-95 -3 -85 -7 9 -4 53 -7 97 -7 64 -1 90 4 130 23 97 46 155 135 155 241 0 53
-28 145 -44 145 -3 0 4 -21 16 -47z"/>
<path d="M3222 2615 c-1 -385 2 -705 6 -712 6 -10 6 725 -1 1217 -1 107 -3
-120 -5 -505z"/>
<path d="M1482 3075 c0 -11 3 -29 8 -40 11 -25 11 1 0 35 -6 20 -8 21 -8 5z"/>
<path d="M1501 3000 c0 -14 28 -72 29 -59 0 4 -7 22 -15 40 -8 19 -14 27 -14
19z"/>
<path d="M2255 2860 c-11 -18 -17 -66 -7 -55 6 6 12 19 14 30 2 13 14 22 33
26 l30 7 -32 1 c-17 0 -35 -4 -38 -9z"/>
<path d="M3050 2537 c-34 -57 -88 -125 -142 -180 l-88 -89 0 -377 c0 -207 4
-401 9 -432 12 -69 31 -142 36 -137 2 2 -3 28 -12 58 -13 46 -17 125 -20 468
l-5 414 59 53 c33 29 78 77 100 107 51 66 125 187 121 197 -2 5 -28 -33 -58
-82z"/>
<path d="M3511 1920 c14 -31 19 -36 19 -24 0 6 -7 19 -16 30 -14 18 -14 18 -3
-6z"/>
<path d="M3532 1850 c-3 -47 -40 -119 -75 -144 -23 -17 -44 -21 -107 -21 -44
0 -72 -3 -62 -7 9 -4 44 -7 78 -7 47 -1 69 4 95 22 45 29 82 103 76 154 l-4
38 -1 -35z"/>
</g>
</svg>
